PathFileType	4	(X/Y/Z)	/Users/rkoike/Documents/python/sports2d/webcam_20251024_144952/webcam_20251024_144952_px_person01.trc
DataRate	CameraRate	NumFrames	NumMarkers	Units	OrigDataRate	OrigDataStartFrame	OrigNumFrames
30	30	14	22	m	30	120	962
Frame#	Time	Hip			RHip			RKnee			RAnkle			RBigToe			RSmallToe			RHeel			LHip			LKnee			LAnkle			LBigToe			LSmallToe			LHeel			Neck			Head			Nose			RShoulder			RElbow			RWrist			LShoulder			LElbow			LWrist			
		X1	Y1	Z1	X2	Y2	Z2	X3	Y3	Z3	X4	Y4	Z4	X5	Y5	Z5	X6	Y6	Z6	X7	Y7	Z7	X8	Y8	Z8	X9	Y9	Z9	X10	Y10	Z10	X11	Y11	Z11	X12	Y12	Z12	X13	Y13	Z13	X14	Y14	Z14	X15	Y15	Z15	X16	Y16	Z16	X17	Y17	Z17	X18	Y18	Z18	X19	Y19	Z19	X20	Y20	Z20	X21	Y21	Z21	X22	Y22	Z22
120	4.004162330905308	574.6744792775754	702.5546746683738	0.0	461.43229176502757	705.4583204220105	0.0	446.4416268116069	713.5969408963705	0.0	899.7751829274933	576.539265808339	0.0			0.0			0.0			0.0	696.6276042342263	702.5546746206129	0.0	790.6322433602894	703.322594133723	0.0	944.4307863423603	589.2980096411582	0.0			0.0	829.3565238830115	333.9305550307034	0.0			0.0	580.4817706881275	345.40624725220107	0.0	586.2890625811416	104.40364960965138	0.0	574.6744791743874	220.54947955934418	0.0	414.97395833215666	359.92447606758554	0.0	281.40624989017084	107.30729528652337	0.0	182.68229168274473	-3.031242897301828	0.0	751.796874833423	374.44270478743414	0.0	888.2682292915873	110.21094101429638	0.0	1004.4140627068676	-3.0312430516183215	0.0
121	4.037530350329519	574.6744797379289	702.5546740573066	0.0	461.4322923005204	705.4583195907389	0.0	446.44162681160685	713.5969408963705	0.0	899.7751829274933	576.539265808339	0.0			0.0			0.0			0.0	696.6276044459763	702.5546736437241	0.0	790.6322433602894	703.322594133723	0.0	944.4307863423603	589.2980096411582	0.0			0.0	829.3565238830115	333.9305550307034	0.0			0.0	580.4817703544388	345.40624789105635	0.0	586.2890623584822	104.40364987998149	0.0	574.6744790635807	220.5494790350846	0.0	414.97395858692545	359.92447703592893	0.0	281.40624921614307	107.30729593830402	0.0	182.6822906542641	-3.0312423378744895	0.0	751.7968745354605	374.44270562616947	0.0	888.2682295692824	110.21094109376973	0.0	1004.4140634363076	-3.031242230724743	0.0
122	4.0708983697537295	574.6744796783116	702.5546743399277	0.0	461.4322923605102	705.4583196789564	0.0	446.4416268116069	713.5969408963705	0.0	899.7751829274933	576.539265808339	0.0			0.0			0.0			0.0	696.6276043487413	702.5546738033556	0.0	790.6322433602894	703.322594133723	0.0	944.4307863423603	589.2980096411582	0.0			0.0	829.3565238830115	333.9305550307034	0.0			0.0	580.4817706711467	345.40624798002233	0.0	586.2890618185619	104.40364994639239	0.0	574.6744789327017	220.5494792604886	0.0	414.97395881790106	359.9244772227362	0.0	281.40624908164955	107.3072966679768	0.0	182.68228967403567	-3.0312436433256598	0.0	751.7968749740421	374.44270590668003	0.0	888.2682292885005	110.21094142582032	0.0	1004.414063210483	-3.0312426530514087	0.0
123	4.10426638917794	574.6744772148544	702.5546779938907	0.0	461.43228973904064	705.4583240906064	0.0	446.4416268116069	713.5969408963705	0.0	899.7751829274933	576.539265808339	0.0			0.0			0.0			0.0	696.627603083873	702.5546790934166	0.0	790.6322433602894	703.322594133723	0.0	944.4307863423603	589.2980096411582	0.0			0.0	829.3565238830115	333.9305550307034	0.0			0.0	580.4817729729078	345.4062448853781	0.0	586.2890619367548	104.40364869118434	0.0	574.6744792515905	220.54948236316363	0.0	414.9739579527154	359.9244726300864	0.0	281.4062522699981	107.30729471641445	0.0	182.68229307651737	-3.031248963773501	0.0	751.7968773233448	374.4427021527475	0.0	888.2682273404868	110.21094164658112	0.0	1004.4140590591903	-3.0312476422059063	0.0
124	4.137634408602151	574.6744728704756	702.554683446049	0.0	461.4322844856593	705.4583319653983	0.0	446.4416268116069	713.5969408963705	0.0	899.7751829274933	576.539265808339	0.0			0.0			0.0			0.0	696.6276011934814	702.554688261173	0.0	790.6322433602894	703.322594133723	0.0	944.4307863423603	589.2980096411582	0.0			0.0	829.3565238830115	333.9305550307034	0.0			0.0	580.4817756992256	345.40623859108393	0.0	586.2890649170866	104.4036459833085	0.0	574.6744805217495	220.5494870671752	0.0	414.97395514045144	359.9244630092184	0.0	281.40625897362565	107.30728730726179	0.0	182.6823045032744	-3.031252337353475	0.0	751.7968795169893	374.4426936361102	0.0	888.2682250982639	110.21094036745272	0.0	1004.4140523784613	-3.0312549005739498	0.0
125	4.171002428026362	574.6744772526075	702.5546750747026	0.0	461.4322879593402	705.4583242964588	0.0	446.44162681160685	713.5969408963705	0.0	899.7751829274933	576.539265808339	0.0			0.0			0.0			0.0	696.6276040855718	702.5546785463043	0.0	790.6322433602894	703.322594133723	0.0	944.4307863423603	589.2980096411582	0.0			0.0	829.3565238830115	333.9305550307034	0.0			0.0	580.4817690893778	345.4062425168679	0.0	586.2890699377322	104.40364728337671	0.0	574.6744812901746	220.54948009932795	0.0	414.97395425174415	359.9244683074431	0.0	281.4062553417687	107.3072832916372	0.0	182.68230869097638	-3.031231533008278	0.0	751.796871659137	374.44269673495205	0.0	888.2682308151235	110.21093682619576	0.0	1004.4140609711349	-3.0312431191455884	0.0
126	4.2043704474505725	574.6745077082662	702.5546314336692	0.0	461.4323213427775	705.4582696089425	0.0	446.4416268116069	713.5969408963705	0.0	899.7751829274933	576.539265808339	0.0			0.0			0.0			0.0	696.6276191972204	702.5546133949116	0.0	790.6322433602894	703.322594133723	0.0	944.4307863423603	589.2980096411582	0.0			0.0	829.3565238830115	333.9305550307034	0.0			0.0	580.4817426929387	345.4062820692547	0.0	586.289064192198	104.40366356545444	0.0	574.6744762537818	220.54944292753112	0.0	414.9739669364379	359.9245274380764	0.0	281.4062142536557	107.30731355105486	0.0	182.6822582390165	-3.0311750444101846	0.0	751.7968456278442	374.4427460759574	0.0	888.268253054192	110.21093667573288	0.0	1004.4141113039558	-3.0311838188565066	0.0
127	4.2377384668747835	574.6745428028339	702.5545918290321	0.0	461.4323666017253	705.4582055712063	0.0	446.4416268116069	713.5969408963705	0.0	899.7751829274933	576.539265808339	0.0			0.0			0.0			0.0	696.6276329452364	702.5545400588428	0.0	790.6322433602894	703.322594133723	0.0	944.4307863423603	589.2980096411582	0.0			0.0	829.3565238830115	333.9305550307034	0.0			0.0	580.4817266351918	345.40633666092	0.0	586.2890277100506	104.40368765241456	0.0	574.6744628252877	220.54940836365847	0.0	414.97399541244107	359.9246119673665	0.0	281.40615526285495	107.30739116131213	0.0	182.6821416442749	-3.0311746882676394	0.0	751.7968366325342	374.4428233629652	0.0	888.2682658268392	110.21095447643313	0.0	1004.4141624065028	-3.0311320781059727	0.0
128	4.2711064862989945	574.6744534981765	702.5547399582875	0.0	461.4322815267493	705.4583640049663	0.0	446.4416268116069	713.5969408963705	0.0	899.7751829274933	576.539265808339	0.0			0.0			0.0			0.0	696.6275817165568	702.5547343829196	0.0	790.6322433602894	703.322594133723	0.0	944.4307863423603	589.2980096411582	0.0			0.0	829.3565238830115	333.9305550307034	0.0			0.0	580.4818311347832	345.4062376940309	0.0	586.288988205468	104.40364995734693	0.0	574.6744632041981	220.54953296805976	0.0	414.9739843712896	359.9244695132905	0.0	281.40625377076753	107.3073830909544	0.0	182.68217926643868	-3.031462494557075	0.0	751.7969525950338	374.44271723593465	0.0	888.2681763589138	110.21098883684718	0.0	1004.414001801257	-3.0313372744341405	0.0
129	4.3044745057232054	574.6741057473114	702.5552217503312	0.0	461.43188984990445	705.4589900188153	0.0	446.44162681160685	713.5969408963705	0.0	899.7751829274933	576.539265808339	0.0			0.0			0.0			0.0	696.6274148330356	702.5554756111555	0.0	790.6322433602894	703.322594133723	0.0	944.4307863423603	589.2980096411582	0.0			0.0	829.3565238830115	333.9305550307034	0.0			0.0	580.482110342239	345.405772140787	0.0	586.2890999642343	104.40345581399102	0.0	574.674532496451	220.54994462353503	0.0	414.97381811287	359.9237690078542	0.0	281.4067409235605	107.30697151787744	0.0	182.6828456948848	-3.0320074377815924	0.0	751.7972173675978	374.44212226911867	0.0	888.2679422944736	110.21096277363449	0.0	1004.4134377475308	-3.031988736003766	0.0
130	4.337842525147416	574.6739055651746	702.5553744760466	0.0	461.4315851739393	705.4593622846302	0.0	446.4416268116069	713.5969408963705	0.0	899.7751829274933	576.539265808339	0.0			0.0			0.0			0.0	696.627361520918	702.5558820139315	0.0	790.6322433602894	703.322594133723	0.0	944.4307863423603	589.2980096411582	0.0			0.0	829.3565238830115	333.9305550307034	0.0			0.0	580.4821035767325	345.4053989951434	0.0	586.2895126099075	104.40328194532107	0.0	574.6746613240801	220.55008513098696	0.0	414.97356074901717	359.9231745618871	0.0	281.40715717402514	107.30623604491643	0.0	182.6839111936095	-3.0315660286234487	0.0	751.7971248224791	374.4415414704945	0.0	888.2679574858323	110.21073811605171	0.0	1004.4131934972223	-3.032170215603227	0.0
131	4.371210544571627	574.6753037067303	702.5532022514345	0.0	461.4330104463586	705.4568678400723	0.0	446.4416268116069	713.5969408963705	0.0	899.7751829274933	576.539265808339	0.0			0.0			0.0			0.0	696.6281131625117	702.5528636081258	0.0	790.6322433602894	703.322594133723	0.0	944.4307863423603	589.2980096411582	0.0			0.0	829.3565238830115	333.9305550307034	0.0			0.0	580.4806649409259	345.40707233232547	0.0	586.2897205866143	104.40394529414303	0.0	574.6745505724116	220.548248025475	0.0	414.9739241285898	359.9256301430586	0.0	281.40545487523656	107.30694995944692	0.0	182.68251857044808	-3.0279500981985525	0.0	751.7955980271319	374.4434838367043	0.0	888.269181483947	110.21044726138068	0.0	1004.415613101573	-3.0291857774227173	0.0
132	4.404578563995838	574.6789644636192	702.5483230608608	0.0	461.43725603591304	705.4502594256977	0.0	446.4416268116069	713.5969408963705	0.0	899.7751829274933	576.539265808339	0.0			0.0			0.0			0.0	696.6298038555607	702.5450920849088	0.0	790.6322433602894	703.322594133723	0.0	944.4307863423603	589.2980096411582	0.0			0.0	829.3565238830115	333.9305550307034	0.0			0.0	580.4779846156197	345.4121357132486	0.0	586.2880057467698	104.40608503162737	0.0	574.6736836685228	220.54406364097102	0.0	414.9759241854184	359.93329985667316	0.0	281.40011671081015	107.31205314504714	0.0	182.67444919190962	-3.023380617454045	0.0	751.7931893973271	374.45011535824017	0.0	888.2714137330786	110.21104567515152	0.0	1004.4214265286107	-3.0226270023594046	0.0
133	4.437946583420049	574.6787326555437	702.5502086609018	0.0	461.437989323105	705.4505273026974	0.0	446.44162681160685	713.5969408963705	0.0	899.7751829274933	576.539265808339	0.0			0.0			0.0			0.0	696.6291558778086	702.5458408257086	0.0	790.6322433602894	703.3225941337231	0.0	944.4307863423603	589.2980096411582	0.0			0.0	829.3565238830115	333.9305550307034	0.0			0.0	580.4802734116493	345.4131454416728	0.0	586.2837075371642	104.40673535103801	0.0	574.6726133098216	220.5455490216711	0.0	414.9778428066404	359.93523324588085	0.0	281.39873633582323	107.31803760995341	0.0	182.66633322866446	-3.033223454698209	0.0	751.7964411317453	374.45271046434436	0.0	888.2693754852684	110.21366030160517	0.0	1004.4200406137608	-3.0254908748501315	0.0
